<?xml version="1.0" encoding="UTF-8"?>
<svg width="169px" height="40px" viewBox="0 0 169 40" version="1.1" xmlns="http://www.w3.org/2000/svg" xmlns:xlink="http://www.w3.org/1999/xlink">
    <title>Group 86</title>
    <g id="Target-Website-v3.4" stroke="none" stroke-width="1" fill="none" fill-rule="evenodd">
        <g id="Group-86" fill-rule="nonzero">
            <g id="Group">
                <path d="M17.8996014,39.2428173 C17.4233883,39.2423909 16.9476445,39.2129201 16.4750196,39.1545689 C16.1346328,39.1142268 15.794246,39.0688419 15.4664661,39.01085 C14.7377862,38.8847808 14.0015421,38.7587117 13.2879905,38.5670865 C12.5744389,38.3754613 11.9214005,38.1006305 11.2128916,37.8535349 L32.3067884,1.63637808 L32.3899941,1.67672022 L18.8602487,33.564661 C19.5208512,33.4612843 20.0679915,33.4007711 20.6025249,33.2847874 C25.1687509,32.296405 28.8348429,28.3428752 29.5559587,23.703529 C29.8882788,21.6859799 29.6767863,19.6163124 28.9432624,17.7076784 C28.725601,17.1919821 28.7449538,16.6067884 28.9962115,16.1065997 C29.7148059,14.5130851 30.3779298,12.8918353 31.0940028,11.2050296 C31.2402431,11.3714409 31.3461412,11.4924673 31.4570821,11.6235793 C33.9784659,14.9442417 35.0878747,18.6834539 34.9542414,22.8437372 C34.702103,30.4759659 28.8852706,37.3467367 21.3690255,38.8015752 C20.5394903,38.9604224 19.6897839,39.0259783 18.8476417,39.1394406 C18.7972141,39.1394406 18.7493078,39.1621331 18.7014015,39.1696972 C18.4492631,39.2100394 18.3484077,39.2251677 18.1441757,39.2453387 L17.8996014,39.2428173 Z" id="Path" fill="#293686"></path>
                <path d="M2.18885901,30.8188741 C2.52168168,31.2928942 2.83685465,31.7769999 3.19741253,32.2358918 C3.64621885,32.8258956 4.09502516,33.4234636 4.59678054,33.9655611 C5.09853591,34.5076586 5.63811204,34.9741146 6.18525233,35.4783913 L28.5902687,0.0554704434 L28.5171486,1.51909609e-13 L6.44999762,26.7064971 C6.23820139,26.0711084 6.03901207,25.5567461 5.89529319,25.0297769 C4.66990067,20.5215427 6.48781838,15.4485185 10.2749368,12.6749963 C11.9138962,11.4488015 13.8489761,10.679642 15.8824944,10.4460931 C16.4412753,10.402247 16.9527456,10.1156394 17.2818624,9.66194269 C18.3584933,8.29030991 19.4905946,6.95649788 20.6579953,5.54704434 C20.4411563,5.49661667 20.2823091,5.44618899 20.1209405,5.42097515 C16.0161277,4.72255184 12.1760602,5.45375314 8.55031032,7.48850986 C1.89133573,11.2176365 -1.51505378,19.5508099 0.648293518,26.8880368 C0.900431897,27.6999223 1.22569041,28.4840727 1.51060677,29.2833514 C1.54857534,29.4151209 1.57888267,29.5489782 1.60137659,29.6842514 L2.18885901,30.8188741 Z" id="Path" fill="#94C840"></path>
            </g>
            <path d="M54.4481409,36 L54.4481409,15.3539326 L61,15.3539326 L61,11 L43,11 L43,15.3539326 L49.5518591,15.3539326 L49.5518591,36 L54.4481409,36 Z M67.0796178,36 L68.5859873,31.5758427 L77.4490446,31.5758427 L78.9203822,36 L84,36 L74.8917197,11 L71.0732484,11 L62,36 L67.0796178,36 Z M76,27 L70,27 L73.0508475,18 L76,27 Z M91.8998145,36 L91.8998145,26.0280899 L95.4248609,26.0280899 L100.324675,36 L106,36 L100.395176,25.2205056 C101.711194,24.7523408 102.803958,23.9564607 103.673469,22.8328652 C104.542981,21.7092697 104.977737,20.3164794 104.977737,18.6544944 C104.977737,16.5009363 104.243352,14.6867978 102.774583,13.2120787 C101.305813,11.7373596 99.3259122,11 96.8348794,11 L96.8348794,11 L87,11 L87,36 L91.8998145,36 Z M96.5172414,22 L92,22 L92,15 L96.5172414,15 C97.5517241,15 98.3908046,15.322695 99.0344828,15.9680851 C99.6781609,16.6134752 100,17.4574468 100,18.5 C100,19.5425532 99.6781609,20.3865248 99.0344828,21.0319149 C98.3908046,21.677305 97.5517241,22 96.5172414,22 L96.5172414,22 Z M118.374765,36 C121.261142,36 123.658506,35.0676796 125.566855,33.2030387 C126.449466,32.3052486 127.075643,31.2808471 127.445386,30.1298343 C127.815129,28.9788214 128,27.5055249 128,25.7099448 L128,25.7099448 L128,22.1187845 L118.374765,22.1187845 L118.374765,26.1243094 L123.062147,26.1243094 L123.062147,27.0566298 C123.062147,28.3918048 122.680477,29.485267 121.917137,30.3370166 C121.034526,31.2578269 119.853735,31.718232 118.374765,31.718232 C116.991212,31.718232 115.929692,31.2923573 115.190207,30.4406077 C114.689266,29.8651013 114.361268,29.1572284 114.206215,28.316989 C114.051161,27.4767495 113.973635,25.8710866 113.973635,23.5 L113.974439,23.0974044 C113.983024,20.9913296 114.060282,19.5428854 114.206215,18.7520718 C114.361268,17.9118324 114.689266,17.1924494 115.190207,16.5939227 C115.977401,15.7191529 117.03892,15.281768 118.374765,15.281768 C120.80791,15.281768 122.334589,16.4788214 122.954802,18.8729282 L122.954802,18.8729282 L127.964218,18.8729282 C127.606403,16.5709024 126.60452,14.6832413 124.958569,13.2099448 C123.312618,11.7366483 121.118016,11 118.374765,11 C115.655367,11 113.365348,11.8977901 111.504708,13.6933702 C110.407407,14.752302 109.715631,15.9838858 109.429379,17.3881215 C109.143126,18.769337 109,20.8066298 109,23.5 C109,26.1933702 109.143126,28.230663 109.429379,29.6118785 C109.715631,31.0161142 110.407407,32.247698 111.504708,33.3066298 C113.365348,35.1022099 115.655367,36 118.374765,36 Z M148,36 L148,31.6460674 L136.742004,31.6460674 L136.742004,25.5716292 L146.328358,25.5716292 L146.328358,21.2176966 L136.742004,21.2176966 L136.742004,15.3539326 L148,15.3539326 L148,11 L132,11 L132,36 L148,36 Z M162.448141,36 L162.448141,15.3539326 L169,15.3539326 L169,11 L151,11 L151,15.3539326 L157.551859,15.3539326 L157.551859,36 L162.448141,36 Z" id="TARGET" fill="#293686"></path>
        </g>
    </g>
</svg>