<svg id="svg" version="1.1" xmlns="http://www.w3.org/2000/svg" xmlns:xlink="http://www.w3.org/1999/xlink" width="400" height="400" viewBox="0, 0, 400,400"><g id="svgg"><path id="path0" d="M305.100 4.100 C 301.345 8.634,298.902 11.594,281.400 32.813 C 274.800 40.815,266.335 51.061,262.589 55.581 C 258.843 60.101,252.813 67.400,249.189 71.800 C 245.565 76.200,241.250 81.433,239.600 83.429 C 237.950 85.425,233.709 90.555,230.177 94.829 C 226.644 99.103,218.556 108.900,212.205 116.600 C 205.853 124.300,199.092 132.490,197.180 134.800 C 189.622 143.933,175.479 161.054,169.600 168.187 C 166.190 172.325,160.328 179.421,156.572 183.955 C 150.088 191.786,142.534 200.930,124.000 223.387 C 119.490 228.851,112.138 237.750,107.663 243.161 C 103.187 248.573,97.877 255.015,95.863 257.479 C 91.510 262.801,91.559 262.787,90.259 259.100 C 68.268 196.723,114.142 123.231,181.600 112.766 C 196.913 110.390,197.817 109.834,209.097 95.853 C 213.204 90.764,220.949 81.325,226.310 74.877 C 239.074 59.523,239.126 59.437,237.920 55.830 C 236.974 53.002,234.974 52.190,225.530 50.797 C 181.348 44.282,136.629 54.142,99.030 78.689 C 36.835 119.294,6.210 199.140,25.039 271.600 C 26.681 277.920,27.778 281.223,32.015 292.615 C 33.737 297.243,35.358 301.923,35.618 303.015 C 38.263 314.134,59.489 343.420,75.998 358.726 C 83.691 365.860,85.416 366.783,88.904 365.632 C 91.282 364.847,88.367 369.259,127.904 306.600 C 129.986 303.300,132.101 299.970,132.603 299.200 C 133.106 298.430,136.979 292.310,141.211 285.600 C 145.442 278.890,151.649 269.080,155.004 263.800 C 158.359 258.520,163.255 250.780,165.883 246.600 C 168.511 242.420,172.826 235.580,175.472 231.400 C 178.118 227.220,183.806 218.220,188.111 211.400 C 192.416 204.580,196.744 197.740,197.729 196.200 C 201.109 190.913,220.535 160.197,224.798 153.400 C 227.144 149.660,229.936 145.250,231.002 143.600 C 232.068 141.950,235.039 137.270,237.604 133.200 C 242.701 125.113,270.721 80.810,286.810 55.400 C 292.382 46.600,298.463 36.970,300.325 34.000 C 302.186 31.030,306.626 24.010,310.192 18.400 C 319.074 4.428,318.800 4.939,318.800 2.309 L 318.800 0.088 314.361 0.028 C 311.251 -0.015,309.731 0.122,309.284 0.484 C 308.801 0.875,308.719 0.879,308.947 0.500 C 310.018 -1.282,307.971 0.633,305.100 4.100 M318.400 1.976 C 318.400 2.403,318.265 2.836,318.100 2.938 C 317.935 3.040,317.800 2.691,317.800 2.162 C 317.800 1.633,317.935 1.200,318.100 1.200 C 318.265 1.200,318.400 1.549,318.400 1.976 M201.900 49.498 C 199.975 49.571,196.825 49.571,194.900 49.498 C 192.975 49.425,194.550 49.365,198.400 49.365 C 202.250 49.365,203.825 49.425,201.900 49.498 M78.800 95.325 C 78.800 95.394,78.215 95.979,77.500 96.625 L 76.200 97.800 77.375 96.500 C 78.470 95.288,78.800 95.016,78.800 95.325 M69.600 104.519 C 69.600 104.584,68.835 105.349,67.900 106.219 L 66.200 107.800 67.781 106.100 C 69.252 104.519,69.600 104.216,69.600 104.519 M122.000 140.922 C 122.000 140.988,121.325 141.663,120.500 142.422 L 119.000 143.800 120.378 142.300 C 121.662 140.904,122.000 140.616,122.000 140.922 M84.683 221.295 C 84.587 221.793,84.505 221.480,84.501 220.600 C 84.496 219.720,84.575 219.313,84.675 219.695 C 84.775 220.078,84.779 220.798,84.683 221.295 M84.683 232.895 C 84.587 233.393,84.505 233.080,84.501 232.200 C 84.496 231.320,84.575 230.913,84.675 231.295 C 84.775 231.678,84.779 232.398,84.683 232.895 M76.200 357.600 C 77.059 358.480,77.672 359.200,77.562 359.200 C 77.452 359.200,76.659 358.480,75.800 357.600 C 74.941 356.720,74.328 356.000,74.438 356.000 C 74.548 356.000,75.341 356.720,76.200 357.600 M81.025 362.100 L 82.200 363.400 80.900 362.225 C 79.688 361.130,79.416 360.800,79.725 360.800 C 79.794 360.800,80.379 361.385,81.025 362.100 " stroke="none" fill="#94cc44" fill-rule="evenodd"></path><path id="path1" d="M349.600 14.179 C 348.448 14.810,348.527 14.679,328.898 48.400 C 320.767 62.370,308.714 83.070,302.115 94.400 C 295.516 105.730,285.925 122.200,280.801 131.000 C 275.677 139.800,267.701 153.480,263.078 161.400 C 258.455 169.320,253.956 177.060,253.081 178.600 C 252.207 180.140,249.744 184.370,247.610 188.000 C 245.475 191.630,240.702 199.820,237.003 206.200 C 233.305 212.580,229.163 219.690,227.799 222.000 C 226.435 224.310,221.398 232.950,216.606 241.200 C 211.814 249.450,204.791 261.510,201.000 268.000 C 197.208 274.490,189.917 287.000,184.798 295.800 C 174.161 314.084,165.449 329.037,147.420 359.961 C 131.370 387.489,131.033 388.702,138.625 391.590 C 145.922 394.366,154.124 397.054,159.511 398.434 L 165.622 400.000 205.532 400.000 L 245.443 400.000 251.649 398.426 C 313.462 382.747,362.827 333.202,379.010 270.600 C 387.396 238.160,385.993 199.754,375.240 167.400 C 367.713 144.753,349.317 113.105,342.600 111.247 C 337.971 109.967,336.677 110.975,333.610 118.255 C 326.942 134.082,319.590 151.286,316.796 157.600 C 311.371 169.858,311.097 174.106,314.969 185.874 C 322.100 207.549,323.337 225.243,319.158 245.800 C 310.095 290.375,272.532 327.652,228.670 335.598 C 223.900 336.463,223.878 336.437,225.740 332.162 C 227.291 328.603,237.550 304.469,243.322 290.800 C 248.233 279.173,258.588 254.742,263.584 243.000 C 265.737 237.940,268.982 230.290,270.795 226.000 C 274.849 216.412,280.499 203.095,281.996 199.600 C 282.609 198.170,284.589 193.490,286.398 189.200 C 288.206 184.910,290.728 178.970,292.002 176.000 C 293.276 173.030,298.047 161.780,302.603 151.000 C 307.159 140.220,314.218 123.570,318.288 114.000 C 322.359 104.430,327.627 92.010,329.995 86.400 C 334.639 75.394,347.968 43.976,353.497 31.000 C 358.548 19.146,359.046 15.775,355.977 14.188 C 354.560 13.455,350.932 13.450,349.600 14.179 M120.575 143.300 L 119.400 144.600 120.700 143.425 C 121.912 142.330,122.184 142.000,121.875 142.000 C 121.806 142.000,121.221 142.585,120.575 143.300 M75.200 358.125 C 75.200 358.194,75.785 358.779,76.500 359.425 L 77.800 360.600 76.625 359.300 C 75.530 358.088,75.200 357.816,75.200 358.125 " stroke="none" fill="#24348b" fill-rule="evenodd"></path><path id="path2" d="M317.800 2.162 C 317.800 2.691,317.935 3.040,318.100 2.938 C 318.265 2.836,318.400 2.403,318.400 1.976 C 318.400 1.549,318.265 1.200,318.100 1.200 C 317.935 1.200,317.800 1.633,317.800 2.162 M194.900 49.498 C 196.825 49.571,199.975 49.571,201.900 49.498 C 203.825 49.425,202.250 49.365,198.400 49.365 C 194.550 49.365,192.975 49.425,194.900 49.498 M77.375 96.500 L 76.200 97.800 77.500 96.625 C 78.712 95.530,78.984 95.200,78.675 95.200 C 78.606 95.200,78.021 95.785,77.375 96.500 M67.781 106.100 L 66.200 107.800 67.900 106.219 C 69.481 104.748,69.784 104.400,69.481 104.400 C 69.416 104.400,68.651 105.165,67.781 106.100 M120.378 142.300 L 119.000 143.800 120.500 142.422 C 121.325 141.663,122.000 140.988,122.000 140.922 C 122.000 140.616,121.662 140.904,120.378 142.300 M84.501 220.600 C 84.505 221.480,84.587 221.793,84.683 221.295 C 84.779 220.798,84.775 220.078,84.675 219.695 C 84.575 219.313,84.496 219.720,84.501 220.600 M84.501 232.200 C 84.505 233.080,84.587 233.393,84.683 232.895 C 84.779 232.398,84.775 231.678,84.675 231.295 C 84.575 230.913,84.496 231.320,84.501 232.200 M75.800 357.600 C 76.659 358.480,77.452 359.200,77.562 359.200 C 77.672 359.200,77.059 358.480,76.200 357.600 C 75.341 356.720,74.548 356.000,74.438 356.000 C 74.328 356.000,74.941 356.720,75.800 357.600 M79.600 360.925 C 79.600 360.994,80.185 361.579,80.900 362.225 L 82.200 363.400 81.025 362.100 C 79.930 360.888,79.600 360.616,79.600 360.925 " stroke="none" fill="#98a468" fill-rule="evenodd"></path><path id="path3" d="M317.800 2.162 C 317.800 2.691,317.935 3.040,318.100 2.938 C 318.265 2.836,318.400 2.403,318.400 1.976 C 318.400 1.549,318.265 1.200,318.100 1.200 C 317.935 1.200,317.800 1.633,317.800 2.162 M194.900 49.498 C 196.825 49.571,199.975 49.571,201.900 49.498 C 203.825 49.425,202.250 49.365,198.400 49.365 C 194.550 49.365,192.975 49.425,194.900 49.498 M77.375 96.500 L 76.200 97.800 77.500 96.625 C 78.712 95.530,78.984 95.200,78.675 95.200 C 78.606 95.200,78.021 95.785,77.375 96.500 M67.781 106.100 L 66.200 107.800 67.900 106.219 C 69.481 104.748,69.784 104.400,69.481 104.400 C 69.416 104.400,68.651 105.165,67.781 106.100 M120.378 142.300 L 119.000 143.800 120.500 142.422 C 121.325 141.663,122.000 140.988,122.000 140.922 C 122.000 140.616,121.662 140.904,120.378 142.300 M84.501 220.600 C 84.505 221.480,84.587 221.793,84.683 221.295 C 84.779 220.798,84.775 220.078,84.675 219.695 C 84.575 219.313,84.496 219.720,84.501 220.600 M84.501 232.200 C 84.505 233.080,84.587 233.393,84.683 232.895 C 84.779 232.398,84.775 231.678,84.675 231.295 C 84.575 230.913,84.496 231.320,84.501 232.200 M75.800 357.600 C 76.659 358.480,77.452 359.200,77.562 359.200 C 77.672 359.200,77.059 358.480,76.200 357.600 C 75.341 356.720,74.548 356.000,74.438 356.000 C 74.328 356.000,74.941 356.720,75.800 357.600 M79.600 360.925 C 79.600 360.994,80.185 361.579,80.900 362.225 L 82.200 363.400 81.025 362.100 C 79.930 360.888,79.600 360.616,79.600 360.925 " stroke="none" fill="#98a468" fill-rule="evenodd"></path><path id="path4" d="M317.800 2.162 C 317.800 2.691,317.935 3.040,318.100 2.938 C 318.265 2.836,318.400 2.403,318.400 1.976 C 318.400 1.549,318.265 1.200,318.100 1.200 C 317.935 1.200,317.800 1.633,317.800 2.162 M194.900 49.498 C 196.825 49.571,199.975 49.571,201.900 49.498 C 203.825 49.425,202.250 49.365,198.400 49.365 C 194.550 49.365,192.975 49.425,194.900 49.498 M77.375 96.500 L 76.200 97.800 77.500 96.625 C 78.712 95.530,78.984 95.200,78.675 95.200 C 78.606 95.200,78.021 95.785,77.375 96.500 M67.781 106.100 L 66.200 107.800 67.900 106.219 C 69.481 104.748,69.784 104.400,69.481 104.400 C 69.416 104.400,68.651 105.165,67.781 106.100 M120.378 142.300 L 119.000 143.800 120.500 142.422 C 121.325 141.663,122.000 140.988,122.000 140.922 C 122.000 140.616,121.662 140.904,120.378 142.300 M84.501 220.600 C 84.505 221.480,84.587 221.793,84.683 221.295 C 84.779 220.798,84.775 220.078,84.675 219.695 C 84.575 219.313,84.496 219.720,84.501 220.600 M84.501 232.200 C 84.505 233.080,84.587 233.393,84.683 232.895 C 84.779 232.398,84.775 231.678,84.675 231.295 C 84.575 230.913,84.496 231.320,84.501 232.200 M75.800 357.600 C 76.659 358.480,77.452 359.200,77.562 359.200 C 77.672 359.200,77.059 358.480,76.200 357.600 C 75.341 356.720,74.548 356.000,74.438 356.000 C 74.328 356.000,74.941 356.720,75.800 357.600 M79.600 360.925 C 79.600 360.994,80.185 361.579,80.900 362.225 L 82.200 363.400 81.025 362.100 C 79.930 360.888,79.600 360.616,79.600 360.925 " stroke="none" fill="#98a468" fill-rule="evenodd"></path></g></svg>